
<svg xmlns="http://www.w3.org/2000/svg" width="165" height="33" fill="none" viewBox="0 0 165 33">

  <path fill="#fff" d="M113.997 30.609a.583.583 0 00-.223-.435.59.59 0 00-.473-.118h-.626v1.884h.332v-.785h.244l.439.785h.407l-.507-.822a.495.495 0 00.407-.509zm-1.015.27v-.521h.307a.299.299 0 01.369.257.328.328 0 01-.407.276h-.269v-.012zm.313-1.539a1.65 1.65 0 00-1.506 1.048 1.656 1.656 0 00.384 1.798 1.648 1.648 0 002.536-.28 1.663 1.663 0 00.137-1.557 1.657 1.657 0 00-1.551-1.009zm0 3.071a1.399 1.399 0 01-1.296-.868 1.413 1.413 0 01.304-1.533 1.4 1.4 0 012.159.213 1.411 1.411 0 01-1.167 2.188zM.98 9.805h5.637V32.41H.98V9.805zm23.858-.66a7.665 7.665 0 00-4.104 1.12 7.692 7.692 0 00-2.88 3.138h-.093V9.78h-5.356v22.606h5.637V19.953c0-3.015 1.692-6.123 5.262-6.123 3.57 0 4.228 3.347 4.228 6.028v12.56h5.637v-14.13c0-4.621-2.443-9.143-8.312-9.143h-.018zm48.52 13.093c0 3.015-1.692 6.123-5.262 6.123-3.57 0-4.228-3.34-4.228-6.029V9.774H58.23v14.13c0 4.615 2.443 9.136 8.319 9.136a7.658 7.658 0 004.117-1.129 7.685 7.685 0 002.88-3.16h.093v3.63h5.356V9.773h-5.638v12.465zm11.406 10.173H90.4V9.805h-5.637V32.41zM36.026 14.828h6.32v17.583h5.637V14.828h6.32V9.805H36.057v5.023h-.031zm9.138-7.956a3.402 3.402 0 003.148-2.109 3.424 3.424 0 00-.738-3.722 3.405 3.405 0 00-5.817 2.415 3.42 3.42 0 001.013 2.406c.643.636 1.51.99 2.413.985l-.019.025zm49.19 2.945v5.024h6.32v17.583h5.637V14.84h6.32V9.817H94.353zm9.138-2.945a3.4 3.4 0 003.148-2.109 3.419 3.419 0 00-2.483-4.657 3.4 3.4 0 00-3.498 1.452 3.425 3.425 0 00-.574 1.898c.006.905.371 1.77 1.013 2.406.643.636 1.51.99 2.413.985l-.019.025z"/>
</svg>
