<svg xmlns="http://www.w3.org/2000/svg" width="101" height="21" fill="none"><path fill="#FFDF10" d="M10.41 20.03c5.5 0 10-4.5 10-10s-4.5-10-10-10a10 10 0 1 0 0 20z"/><path fill="#000" d="M13.35 9.64h.28c.06-.1.06-.33 0-.55-.05-.33-.17-.56-.33-.5-.22.05-.22.28-.11.6.05.18.1.34.16.45zm-1.66.28c.16.06.22.11.27.06v-.11c-.05-.12-.22-.23-.38-.28-.34-.11-.67-.11-.95.1-.11.06-.16.18-.16.23 0 0 0 .06.05.06.06 0 .33-.11.67-.17.16 0 .39.06.5.11zm-.28.17a.9.9 0 0 0-.33.17l-.11.1v.06h.05c.06 0 .11-.05.11-.05.28-.11.45-.06.61-.06h.17v-.05c-.06-.11-.22-.23-.5-.17zm1.39.55c.1.06.28.06.28-.05.05-.11 0-.22-.17-.28-.11-.06-.28-.06-.28.06 0 .1.06.22.17.27zm.78-.66c-.11 0-.17.1-.17.22 0 .11.06.28.17.28.1 0 .16-.11.16-.23.06-.16-.05-.27-.16-.27zm-6.73 2.5c0-.06-.05 0-.1 0h-.12c-.05 0-.11-.06-.16-.11-.06-.06-.06-.17 0-.28v-.06c.05-.16.22-.5.05-.77a.7.7 0 0 0-.5-.4c-.22 0-.44.06-.55.23-.23.22-.28.55-.23.72 0 .06.06.06.06.06.05 0 .1 0 .1-.12v-.05a.42.42 0 0 1 .12-.22.3.3 0 0 1 .28-.17.7.7 0 0 1 .33.06c.17.1.22.27.17.5-.06.1-.11.27-.06.44 0 .28.23.44.4.44.16 0 .27-.1.27-.16l-.06-.11z"/><path fill="#000" d="m16.13 11.92-.1-.33-.12-.28c.22-.33.22-.61.22-.78a1.05 1.05 0 0 0-.28-.55 2.36 2.36 0 0 0-1-.5c-.05 0-.22-.06-.27-.06v-.89c0-.16 0-.5-.11-.77a1.8 1.8 0 0 0-.56-.95c.67-.67 1.05-1.44 1.05-2.05 0-1.23-1.5-1.61-3.38-.84l-.4.17-.71-.72C8.3 1.47 1.69 8.8 3.8 10.59l.5.39c-.11.33-.17.66-.11 1.05.05.5.28.95.72 1.34.39.33.89.55 1.39.55a5.37 5.37 0 0 0 4.89 3.11c2.39.06 4.33-1.05 5.16-3.05.06-.17.28-.78.28-1.34 0-.5-.28-.72-.5-.72zm-9.66 1.5h-.23c-.72 0-1.5-.66-1.55-1.44-.11-.84.33-1.5 1.1-1.67.12 0 .23-.05.34 0 .45 0 1.06.33 1.22 1.28.06.83-.1 1.67-.89 1.83zm-.84-3.55c-.5.1-.89.39-1.17.72-.16-.11-.44-.4-.5-.45-.38-.77.45-2.27 1.06-3.1 1.5-2.12 3.78-3.73 4.83-3.4.17.06.73.73.73.73s-1.06.6-2.06 1.44a8.5 8.5 0 0 0-2.89 4.06zm7.5 3.22c.06 0 .06 0 0 0v-.06s-1.11.17-2.17-.22c.12-.39.45-.22.9-.22a6 6 0 0 0 2.1-.22 4.3 4.3 0 0 0 1.62-.78c.16.39.22.78.22.78s.1 0 .22.05c.11.06.17.17.11.5a3.2 3.2 0 0 1-1.83 2.34c-.22.1-.4.22-.61.27-1.67.56-3.4-.05-3.95-1.33-.05-.11-.05-.22-.1-.28-.23-.83-.06-1.89.6-2.5.06-.05.06-.1.06-.16s-.06-.11-.06-.17c-.22-.33-1-.83-.83-1.9.11-.77.78-1.27 1.39-1.27h.16c.28 0 .5.06.73.06.39 0 .72-.06 1.1-.4.12-.1.23-.21.4-.21h.16c.11 0 .17.05.28.1.34.23.34.73.39 1.06 0 .23.06.73.06.9 0 .33.1.38.27.44.11.05.17.05.34.1.39.12.66.23.83.4.11.1.11.22.17.27.05.34-.28.78-1.11 1.23-.95.44-2.06.55-2.9.44l-.27-.05c-.61-.11-1 .72-.61 1.27.22.34.89.61 1.55.61 1.5 0 2.73-.66 3.11-1.22l.06-.05v-.06c-.33.22-1.94 1.22-3.61.95l-.39-.11c-.17-.06-.44-.23-.5-.5a3.34 3.34 0 0 0 2.11-.06zM8.35 6.98a6.82 6.82 0 0 1 1.73-1.45s.05 0 .05.06c-.05.05-.11.28-.17.39 0 0 0 .05.06 0 .33-.23 1-.5 1.56-.56 0 0 .05.06 0 .06-.12.05-.17.16-.23.22v.06c.4 0 .95.1 1.28.33v.05a5.45 5.45 0 0 0-4.28.84s.06.05 0 0z"/><path fill="#fff" d="M59.7 9.77c.56 0 1.29.31 1.6.68l1.45-1.4a4.15 4.15 0 0 0-3-1.14c-2.5 0-4.3 1.76-4.3 4.25s1.76 4.25 4.35 4.25c1.19 0 2.33-.37 3-1.1l-1.4-1.5c-.3.42-.98.68-1.6.68-1.35 0-2.02-1.2-2.02-2.38-.05-1.2.67-2.34 1.91-2.34zm8.96-1.91c-1.09 0-1.97.67-2.38 1.24h-.06V3.66H64v12.43h2.23v-4.35c0-.93.52-1.91 1.66-1.91.88 0 1.4.62 1.4 1.91v4.4h2.33v-4.97c.05-1.55-.72-3.31-2.95-3.31zm19.17 3.93v4.4h2.23v-4.97c0-1.5-.73-3.26-2.96-3.26a2.9 2.9 0 0 0-2.48 1.45 2.8 2.8 0 0 0-2.49-1.45c-1.09 0-2.02.83-2.43 1.45h-.06V8.17h-2.12v8.03h2.23v-4.4c0-.99.51-1.97 1.6-1.97 1.2 0 1.35 1.08 1.35 1.55v4.82h2.23v-4.35c0-.99.57-1.97 1.66-1.97.93 0 1.24.88 1.24 1.92zm-53.06-.1v4.4H37v-4.97c0-1.5-.72-3.26-2.95-3.26a2.9 2.9 0 0 0-2.49 1.45 2.8 2.8 0 0 0-2.49-1.45c-1.09 0-2.02.83-2.43 1.45h-.05V8.06H24.4v8.04h2.23v-4.4c0-1 .51-1.98 1.6-1.98 1.2 0 1.35 1.1 1.35 1.56v4.82h2.23v-4.36c0-.98.57-1.97 1.66-1.97 1.03 0 1.3.89 1.3 1.92zm7.3-3.83c-1.29 0-2.58.51-3.41 1.3l1.14 1.29c.52-.52 1.4-.83 2.12-.83.78 0 1.6.41 1.6 1.35v.15c-2.32 0-5.28.31-5.28 2.7 0 1.76 1.5 2.54 3.06 2.54.93 0 1.76-.52 2.28-1.14v.93h2.07v-4.87c0-1.3-.46-3.42-3.57-3.42zm-.4 6.79c-.47 0-1.25-.16-1.25-.89 0-.77.98-1.24 2.85-1.24h.31v.16c-.05 1.19-.72 1.97-1.92 1.97zm32.8-10.42c-.73 0-1.36.57-1.36 1.3 0 .72.63 1.3 1.35 1.3.78 0 1.4-.58 1.4-1.3 0-.78-.62-1.3-1.4-1.3zm1.13 3.83h-2.23v8.04h2.23V8.05zm-27-3.83c-.72 0-1.34.57-1.34 1.3 0 .72.62 1.3 1.35 1.3.77 0 1.4-.58 1.4-1.3 0-.78-.63-1.3-1.4-1.3zm1.15 3.83h-2.23v8.04h2.23V8.05zm4.2-4.4H51.7V16.1h2.23V3.65zM95.8 9.72c1.45 0 2.12 1.2 2.12 2.33 0 1.2-.77 2.39-2.12 2.39s-2.13-1.2-2.13-2.33.78-2.39 2.13-2.39zm.41-1.86c-1.4 0-2.22.88-2.54 1.24h-.05V8.06h-2.12v11.97h2.23v-4.92h.05a3.7 3.7 0 0 0 2.59 1.2c2.28 0 3.88-1.82 3.88-4.26-.05-2.43-1.76-4.2-4.04-4.2z"/></svg>
