<?xml version="1.0" encoding="UTF-8"?>
<svg xmlns="http://www.w3.org/2000/svg" xmlns:xlink="http://www.w3.org/1999/xlink" width="57" height="20" viewBox="0 0 57 20">
  <defs>
    <path id="a" d="M.882 10.114c0 5.247 4.151 9.501 9.273 9.501s9.273-4.254 9.273-9.501c0-5.246-4.151-9.499-9.273-9.499S.882 4.868.882 10.114z"/>
    <path id="c" d="M.52 8.568c0 2.368 1.847 3.151 4.653 5.101 2.805-1.95 4.65-2.733 4.65-5.101 0-3.326-4.058-7.596-4.65-8.202C4.58.972.52 5.242.52 8.568zm4.06 3.191c-2.243-1.492-2.77-2.04-2.77-3.191 0-1.883 1.727-4.502 3.26-6.275v9.79l-.49-.324z"/>
    <path id="e" d="M8.138 2.038C7.732 1.343 6.893.485 5.518.485c-1.157 0-2.124.9-2.568 1.547h-.035V.727H.703v8.585h2.313V4.604c0-1.042.544-2.093 1.666-2.093 1.222 0 1.426 1.15 1.426 1.645v5.156h2.315V4.639c0-1.06.586-2.128 1.719-2.128 1.094 0 1.386.981 1.386 2.06v4.741h2.315V3.983c0-1.613-.774-3.498-3.083-3.498-1.155 0-2.031.622-2.622 1.553z"/>
    <path id="g" d="M2.513 2.032h-.035V.727H.266v8.585h2.313V4.604c0-1.008.598-2.093 1.796-2.093 1.122 0 1.423 1.03 1.423 2.06v4.741h2.314V3.983c0-1.613-.73-3.498-3.039-3.498-1.212 0-2.1.899-2.56 1.547z"/>
    <path id="i" d="M1.579.326v2.401H.163v1.894h1.416v3.78c0 1.325.314 3.106 2.802 3.106.486 0 1.1-.103 1.465-.245l-.057-1.856c-.231.08-.587.177-1.013.177-.677 0-.917-.485-.917-1.201V4.621h2.023V2.727H3.859V.326h-2.28z"/>
  </defs>
  <g fill="none" fill-rule="evenodd">
    <mask id="b" fill="#fff">
      <use xlink:href="#a"/>
    </mask>
    <path fill="#00A6A4" mask="url(#b)" d="M-4.217 24.837h28.744V-4.608H-4.217z"/>
    <g transform="translate(5 3)">
      <mask id="d" fill="#fff">
        <use xlink:href="#c"/>
      </mask>
      <path fill="#FFF" mask="url(#d)" d="M-4.578 18.893h19.5v-23.75h-19.5z"/>
    </g>
    <path fill="#FFF" d="M37.934 16.312h2.314V7.726h-2.314z"/>
    <g transform="translate(22 7)">
      <mask id="f" fill="#fff">
        <use xlink:href="#e"/>
      </mask>
      <path fill="#FFF" mask="url(#f)" d="M-4.396 14.535h23.337V-4.739H-4.396z"/>
    </g>
    <g transform="translate(42 7)">
      <mask id="h" fill="#fff">
        <use xlink:href="#g"/>
      </mask>
      <path fill="#FFF" mask="url(#h)" d="M-4.833 14.535h18.044V-4.739H-4.833z"/>
    </g>
    <g transform="translate(51 5)">
      <mask id="j" fill="#fff">
        <use xlink:href="#i"/>
      </mask>
      <path fill="#FFF" mask="url(#j)" d="M-4.935 16.729h15.916V-4.897H-4.935z"/>
    </g>
  </g>
</svg>
