<?xml version="1.0" encoding="UTF-8"?>
<svg xmlns="http://www.w3.org/2000/svg" xmlns:xlink="http://www.w3.org/1999/xlink" width="114" height="20" viewBox="0 0 114 20">
  <defs>
    <path id="a" d="M82.995.108v2.286h-1.392v1.808h1.392v3.603c0 1.263.31 2.962 2.754 2.962.478 0 1.081-.097 1.44-.233l-.055-1.768a3.226 3.226 0 0 1-.998.168c-.663 0-.9-.463-.9-1.144V4.202h1.988V2.394h-1.988V.108h-2.241zm-19.508 6.43c0 2.557 1.919 4.275 4.561 4.275 1.538 0 2.744-.604 3.546-1.691l-1.64-1.083c-.461.647-1.048.915-1.922.915-1.205 0-2.071-.84-2.223-1.782h6.108s.023-.287.023-.585c0-2.728-1.529-4.442-3.988-4.442-2.747 0-4.465 1.863-4.465 4.393zm4.398-2.72c1.205 0 1.766.879 1.766 1.775h-3.842c.024-1.073 1.016-1.775 2.076-1.775zm5.181 2.671c0 2.546 1.83 4.324 4.451 4.324 1.247 0 2.399-.362 3.082-1.092l-1.425-1.522c-.331.4-1.021.683-1.641.683-1.384 0-2.083-1.23-2.083-2.42 0-1.188.757-2.366 2.017-2.366.589 0 1.335.294 1.628.707l1.466-1.453c-.709-.742-1.841-1.185-3.094-1.185-2.551 0-4.401 1.817-4.401 4.324zM56.682 3.641h-.033V2.394h-2.176v8.188h2.276V6.094c0-.963.588-1.998 1.764-1.998 1.104 0 1.4.983 1.4 1.965v4.521h2.275V5.501c0-1.539-.717-3.336-2.988-3.336-1.192 0-2.066.857-2.518 1.476zm-9.406 0h-.033V2.394h-2.176v8.188h2.276V6.094c0-.963.588-1.998 1.763-1.998 1.104 0 1.401.983 1.401 1.965v4.521h2.275V5.501c0-1.539-.719-3.336-2.988-3.336-1.192 0-2.066.857-2.518 1.476zM34.833 6.456c0 2.574 1.92 4.379 4.468 4.379 2.547 0 4.467-1.822 4.467-4.379 0-2.486-1.879-4.291-4.467-4.291-2.589 0-4.468 1.805-4.468 4.291zm2.307 0c0-1.152.677-2.393 2.161-2.393 1.483 0 2.16 1.241 2.16 2.393 0 1.169-.677 2.426-2.16 2.426-1.484 0-2.161-1.257-2.161-2.426zm-10.566.033c0 2.546 1.832 4.324 4.452 4.324 1.248 0 2.401-.362 3.083-1.092l-1.425-1.522c-.33.4-1.021.683-1.641.683-1.386 0-2.082-1.23-2.082-2.42 0-1.188.757-2.366 2.016-2.366.59 0 1.335.294 1.628.707l1.466-1.453c-.709-.742-1.841-1.185-3.094-1.185-2.551 0-4.403 1.817-4.403 4.324zm-9.997-.033c0 2.574 1.92 4.379 4.468 4.379 2.547 0 4.467-1.822 4.467-4.379 0-2.486-1.879-4.291-4.467-4.291-2.589 0-4.468 1.805-4.468 4.291zm2.307 0c0-1.152.677-2.393 2.161-2.393s2.16 1.241 2.16 2.393c0 1.169-.676 2.426-2.16 2.426s-2.161-1.257-2.161-2.426zM12.92 3.658h-.033V2.394h-2.192v8.188h2.274V6.209c0-.02.101-1.999 2.074-1.999.163 0 .445.022.706.087V2.231a3.928 3.928 0 0 0-.653-.066c-.894 0-1.659.729-2.176 1.493zM2.533 3.434h-.051v-1.04H.29v12.221h2.275V9.597h.034c.58.655 1.582 1.216 2.649 1.216 2.348 0 3.998-1.832 3.998-4.357 0-2.486-1.787-4.291-4.107-4.291-1.415 0-2.285.917-2.606 1.269zm-.035 3.055c0-1.168.839-2.426 2.194-2.426 1.472 0 2.206 1.241 2.206 2.393 0 1.205-.8 2.426-2.206 2.426-1.374 0-2.194-1.217-2.194-2.393z"/>
    <path id="c" d="M.882 9.684c0 5.011 4.055 9.073 9.058 9.073 5.004 0 9.059-4.062 9.059-9.073 0-5.009-4.055-9.069-9.059-9.069C4.937.615.882 4.675.882 9.684z"/>
    <path id="e" d="M1.669.607v.711c0 .392.316.711.706.711h4.253L.921 7.762a.713.713 0 0 0 0 1.005l.501.503 7.415-7.45A.71.71 0 1 0 8.338.607H1.669zm7.922 1.939L2.174 9.995l.501.503a.709.709 0 0 0 1.001 0l5.708-5.734v4.272c0 .393.316.711.708.711h.708V3.048a.709.709 0 0 0-.438-.656.702.702 0 0 0-.771.154z"/>
  </defs>
  <g fill="none" fill-rule="evenodd">
    <path fill="#FFF" d="M113.5 13.915l-.544 1.191-.546-1.191h-.393v1.555h.253v-1.306h.009l.587 1.306h.167l.588-1.306h.008v1.306h.253v-1.555h-.382zm-3.241 0v.203h.577v1.352h.253v-1.352h.562v-.203h-1.392z"/>
    <g transform="translate(22 5)">
      <mask id="b" fill="#fff">
        <use xlink:href="#a"/>
      </mask>
      <path fill="#FFF" mask="url(#b)" d="M-4.694 19.605h96.902V-4.883H-4.694z"/>
    </g>
    <mask id="d" fill="#fff">
      <use xlink:href="#c"/>
    </mask>
    <path fill="#0077C5" mask="url(#d)" d="M-4.102 23.746h28.085V-4.376H-4.102z"/>
    <g transform="translate(4 4)">
      <mask id="f" fill="#fff">
        <use xlink:href="#e"/>
      </mask>
      <path fill="#FFF" mask="url(#f)" d="M-4.27 15.696h20.053V-4.383H-4.27z"/>
    </g>
  </g>
</svg>
