<svg width="24" height="24" viewBox="0 0 24 24" fill="none" xmlns="http://www.w3.org/2000/svg">
<path fill-rule="evenodd" clip-rule="evenodd" d="M11.9996 0C12.3279 0 12.594 0.266136 12.594 0.594431V2.64737C12.594 2.97567 12.3279 3.2418 11.9996 3.2418C11.6713 3.2418 11.4052 2.97567 11.4052 2.64737V0.594431C11.4052 0.266136 11.6713 0 11.9996 0Z" fill="#0D333F"/>
<path fill-rule="evenodd" clip-rule="evenodd" d="M3.48154 3.48148C3.71368 3.24934 4.09005 3.24934 4.32219 3.48148L5.80487 4.96416C6.03701 5.1963 6.03701 5.57267 5.80487 5.80481C5.57273 6.03695 5.19636 6.03695 4.96422 5.80481L3.48154 4.32213C3.2494 4.08999 3.2494 3.71362 3.48154 3.48148Z" fill="#0D333F"/>
<path fill-rule="evenodd" clip-rule="evenodd" d="M0 11.9996C0 11.6713 0.266136 11.4052 0.59443 11.4052H2.64737C2.97567 11.4052 3.2418 11.6713 3.2418 11.9996C3.2418 12.3279 2.97567 12.594 2.64737 12.594H0.59443C0.266136 12.594 0 12.3279 0 11.9996Z" fill="#0D333F"/>
<path fill-rule="evenodd" clip-rule="evenodd" d="M20.7582 11.9996C20.7582 11.6713 21.0243 11.4052 21.3526 11.4052H23.4056C23.7338 11.4052 24 11.6713 24 11.9996C24 12.3279 23.7338 12.594 23.4056 12.594H21.3526C21.0243 12.594 20.7582 12.3279 20.7582 11.9996Z" fill="#0D333F"/>
<path fill-rule="evenodd" clip-rule="evenodd" d="M20.5175 3.48148C20.7496 3.71362 20.7496 4.08999 20.5175 4.32213L19.0348 5.80481C18.8026 6.03695 18.4263 6.03695 18.1941 5.80481C17.962 5.57267 17.962 5.1963 18.1941 4.96416L19.6768 3.48148C19.9089 3.24934 20.2853 3.24934 20.5175 3.48148Z" fill="#0D333F"/>
<path fill-rule="evenodd" clip-rule="evenodd" d="M8.99585 22.0856C8.99585 21.7573 9.26199 21.4912 9.59028 21.4912H14.4091C14.7374 21.4912 15.0036 21.7573 15.0036 22.0856C15.0036 22.4139 14.7374 22.6801 14.4091 22.6801H9.59028C9.26199 22.6801 8.99585 22.4139 8.99585 22.0856Z" fill="#0D333F"/>
<path fill-rule="evenodd" clip-rule="evenodd" d="M9.86153 10.5923C10.0937 10.3602 10.47 10.3602 10.7022 10.5923L12.0615 11.9515L13.4206 10.5923C13.6528 10.3602 14.0291 10.3602 14.2613 10.5923C14.4934 10.8245 14.4934 11.2008 14.2613 11.433L12.0615 13.6327L9.86156 11.433C9.62941 11.2009 9.6294 10.8245 9.86153 10.5923Z" fill="#0D333F"/>
<path fill-rule="evenodd" clip-rule="evenodd" d="M11.4175 18.7283L11.4175 12.6063L12.6063 12.6063L12.6063 18.7283L11.4175 18.7283Z" fill="#0D333F"/>
<path fill-rule="evenodd" clip-rule="evenodd" d="M5.1376 11.6885C5.1376 7.8868 8.23449 4.81165 12.055 4.81165C15.8733 4.81165 18.9843 7.88452 18.9843 11.6885C18.9843 13.8207 18.0103 15.7227 16.4829 16.9837L15.945 19.6823C15.8618 20.0994 15.4958 20.3997 15.0705 20.3997H9.06327C8.63802 20.3997 8.27195 20.0994 8.18883 19.6823L7.6513 16.9856C6.1121 15.7242 5.1376 13.8212 5.1376 11.6885ZM12.055 6.59494C9.20926 6.59494 6.9209 8.88177 6.9209 11.6885C6.9209 13.3564 7.72499 14.8353 8.99016 15.7685C9.16886 15.9003 9.29195 16.094 9.33536 16.3117L9.79473 18.6164H14.3391L14.7984 16.3117C14.8416 16.0951 14.9636 15.9023 15.1409 15.7705C16.3963 14.8371 17.201 13.357 17.201 11.6885C17.201 8.88404 14.9031 6.59494 12.055 6.59494Z" fill="#0D333F"/>
</svg>
