<svg width="24" height="24" viewBox="0 0 24 24" fill="none" xmlns="http://www.w3.org/2000/svg">
<path fill-rule="evenodd" clip-rule="evenodd" d="M0.799988 4.27482C0.799988 1.94223 2.74221 0 5.07481 0H22.5852C23.2869 0 23.8558 0.568862 23.8558 1.27059C23.8558 1.97231 23.2869 2.54118 22.5852 2.54118C21.6561 2.54118 20.8516 3.34568 20.8516 4.27482V22.7294C20.8516 23.1418 20.6515 23.5285 20.3148 23.7666C19.9782 24.0048 19.5469 24.0648 19.1581 23.9276L15.2034 22.5318L11.2487 23.9276C10.975 24.0241 10.6766 24.0241 10.4029 23.9276L6.44818 22.5318L2.49345 23.9276C2.10461 24.0648 1.67334 24.0048 1.33672 23.7666C1.0001 23.5285 0.799988 23.1418 0.799988 22.7294V4.27482ZM18.6863 2.54118H5.07481C4.14567 2.54118 3.34116 3.34568 3.34116 4.27482V20.9336L6.0253 19.9862C6.29895 19.8896 6.59741 19.8896 6.87105 19.9862L10.8258 21.382L14.7805 19.9862C15.0541 19.8896 15.3526 19.8896 15.6262 19.9862L18.3104 20.9336V4.27482C18.3104 3.6604 18.4451 3.07307 18.6863 2.54118Z" fill="#0D333F"/>
<path fill-rule="evenodd" clip-rule="evenodd" d="M5.76147 7.71948H15.375V9.4136H5.76147V7.71948Z" fill="#0D333F"/>
<path fill-rule="evenodd" clip-rule="evenodd" d="M5.76147 12.6121H10.8258V14.3062H5.76147V12.6121Z" fill="#0D333F"/>
</svg>
