<svg width="24" height="24" viewBox="0 0 24 24" fill="none" xmlns="http://www.w3.org/2000/svg">
<g clip-path="url(#clip0_2301_37395)">
<path fill-rule="evenodd" clip-rule="evenodd" d="M13.8015 0.989606C13.8129 0.431796 14.2743 -0.0111693 14.8321 0.000214592C18.7066 0.0792854 21.9638 3.3075 21.9638 7.15232C21.9638 7.71024 21.5115 8.16253 20.9536 8.16253C20.3957 8.16253 19.9434 7.71024 19.9434 7.15232C19.9434 4.44556 17.6045 2.07764 14.7909 2.02022C14.2331 2.00884 13.7901 1.54742 13.8015 0.989606Z" fill="#0D333F"/>
<path fill-rule="evenodd" clip-rule="evenodd" d="M13.2515 4.39918C13.2643 4.02745 13.576 3.73649 13.9478 3.74931C16.2806 3.82975 18.1342 5.68333 18.2146 8.01619C18.2275 8.38792 17.9365 8.69966 17.5648 8.71248C17.193 8.7253 16.8813 8.43434 16.8685 8.06261C16.8124 6.43722 15.5267 5.15151 13.9013 5.09546C13.5296 5.08264 13.2387 4.77091 13.2515 4.39918Z" fill="#0D333F"/>
<path fill-rule="evenodd" clip-rule="evenodd" d="M12.7049 7.56166C12.7049 7.18971 13.0064 6.88818 13.3783 6.88818C14.311 6.88818 15.199 7.63958 15.0703 8.66888C15.0242 9.03795 14.6876 9.29975 14.3185 9.25362C13.9494 9.20748 13.6876 8.87089 13.7338 8.50181C13.7394 8.45682 13.7268 8.40195 13.6699 8.34498C13.6111 8.28617 13.5105 8.23513 13.3783 8.23513C13.0064 8.23513 12.7049 7.93361 12.7049 7.56166Z" fill="#0D333F"/>
<path fill-rule="evenodd" clip-rule="evenodd" d="M4.84786 6.73404C4.31164 6.73404 3.74695 7.2706 3.74695 7.97144V21.4158C3.74695 22.1343 4.25949 22.6532 4.84786 22.6532H14.061C14.5972 22.6532 15.1619 22.1167 15.1619 21.4158V10.4283H16.5089V21.4158C16.5089 22.7623 15.4357 24.0002 14.061 24.0002H4.84786C3.38885 24.0002 2.39999 22.7447 2.39999 21.4158V7.97144C2.39999 6.62491 3.47319 5.38708 4.84786 5.38708H11.5359V6.73404H4.84786Z" fill="#0D333F"/>
<path d="M9.96642 9.95056H9.42045V10.4965C8.66975 10.5648 7.78256 11.1107 7.78256 12.0662C7.78256 13.0899 8.53326 13.3628 9.42045 13.6358V14.9325C9.07922 14.9325 8.6015 14.7278 8.32852 14.3865C8.05554 14.6595 7.78256 14.9325 7.57782 15.2055C8.05554 15.6149 8.80624 15.8879 9.42045 15.8879V16.4339H9.96642V15.8879C10.8536 15.8879 11.6726 15.342 11.6726 14.25C11.6726 13.1581 10.7171 12.8851 9.96642 12.6121V11.3837C10.3076 11.3837 10.6489 11.5202 10.9219 11.7932C11.1948 11.5202 11.3996 11.2472 11.6726 10.9742C11.1948 10.633 10.5806 10.4283 9.96642 10.4283V9.95056V9.95056ZM9.42045 12.4756C9.07922 12.4074 8.87449 12.2027 8.87449 11.9297C8.87449 11.5885 9.14747 11.452 9.42045 11.3837V12.4756ZM9.96642 13.7041C10.3076 13.7723 10.5124 13.9771 10.5124 14.3183C10.5124 14.6595 10.3076 14.8642 9.96642 14.9325V13.7041Z" fill="#0D333F"/>
<path d="M15.8353 20.0507H3.20984V23.0535H15.8353V20.0507Z" fill="#0D333F"/>
<path d="M9.69335 23.3263C10.3076 23.3263 10.8535 22.7804 10.8535 22.1662C10.8535 21.5519 10.3076 21.006 9.69335 21.006C9.07914 21.006 8.53317 21.5519 8.53317 22.1662C8.60142 22.7804 9.07914 23.3263 9.69335 23.3263Z" fill="#DBEDEE"/>
</g>
<defs>
<clipPath id="clip0_2301_37395">
<rect width="24" height="24" fill="white"/>
</clipPath>
</defs>
</svg>
