<svg width="24" height="24" viewBox="0 0 24 24" fill="none" xmlns="http://www.w3.org/2000/svg">
<path fill-rule="evenodd" clip-rule="evenodd" d="M11.9741 2.14874C8.1865 2.14874 5.03452 5.30073 5.03452 9.08833V11.0117H2.88577V9.08833C2.88577 4.11401 6.99978 0 11.9741 0C16.9484 0 21.0624 4.11401 21.0624 9.08833V11.0117H18.9137V9.08833C18.9137 5.30073 15.7617 2.14874 11.9741 2.14874Z" fill="#0D333F"/>
<path fill-rule="evenodd" clip-rule="evenodd" d="M2.67716 12.0867C2.4157 12.0867 2.14874 12.3537 2.14874 12.6152V15.3933C2.14874 15.6548 2.4157 15.9217 2.67716 15.9217H3.84669V12.0867H2.67716ZM0 12.6152C0 11.167 1.22898 9.93799 2.67716 9.93799H5.99543V18.0705H2.67716C1.22898 18.0705 0 16.8415 0 15.3933V12.6152Z" fill="#0D333F"/>
<path fill-rule="evenodd" clip-rule="evenodd" d="M18.0046 9.93835H21.3229C22.7711 9.93835 24.0001 11.1673 24.0001 12.6155V15.3937C24.0001 16.8419 22.7711 18.0709 21.3229 18.0709H18.0046V9.93835ZM20.1534 12.0871V15.9221H21.3229C21.5844 15.9221 21.8513 15.6552 21.8513 15.3937V12.6155C21.8513 12.3541 21.5844 12.0871 21.3229 12.0871H20.1534Z" fill="#0D333F"/>
<path fill-rule="evenodd" clip-rule="evenodd" d="M19.27 18.5967V16.9939H20.7025V18.5967C20.7025 20.7553 18.9393 22.5185 16.7807 22.5185H11.8654V21.086H16.7807C18.1482 21.086 19.27 19.9642 19.27 18.5967Z" fill="#0D333F"/>
<path d="M12.1338 23.4065C13.019 23.4065 13.7366 22.6889 13.7366 21.8037C13.7366 20.9184 13.019 20.2008 12.1338 20.2008C11.2485 20.2008 10.5309 20.9184 10.5309 21.8037C10.5309 22.6889 11.2485 23.4065 12.1338 23.4065Z" fill="#0D333F"/>
</svg>
