<svg width="24" height="24" viewBox="0 0 24 24" fill="none" xmlns="http://www.w3.org/2000/svg">
<g clip-path="url(#clip0_2301_37376)">
<path fill-rule="evenodd" clip-rule="evenodd" d="M22.4054 0.573322C22.7286 0.896507 22.7286 1.42049 22.4054 1.74368L13.7159 10.4331C13.3928 10.7563 12.8688 10.7563 12.5456 10.4331L8.2481 6.13567L2.21274 12.171C1.88955 12.4942 1.36556 12.4942 1.04238 12.171C0.719191 11.8479 0.719191 11.3239 1.04238 11.0007L7.66292 4.38014C7.98611 4.05695 8.5101 4.05695 8.83328 4.38014L13.1308 8.67761L21.235 0.573322C21.5582 0.250136 22.0822 0.250136 22.4054 0.573322Z" fill="#0D333F"/>
<path fill-rule="evenodd" clip-rule="evenodd" d="M14.0413 1.24135C14.0413 0.555772 14.5971 0 15.2827 0H21.8205C22.506 0 23.0618 0.555772 23.0618 1.24135V7.94466C23.0618 8.63024 22.506 9.18601 21.8205 9.18601C21.1349 9.18601 20.5791 8.63024 20.5791 7.94466V2.48271H15.2827C14.5971 2.48271 14.0413 1.92693 14.0413 1.24135Z" fill="#0D333F"/>
<path fill-rule="evenodd" clip-rule="evenodd" d="M2.28961 24.0002V19.0348H4.77232V24.0002H2.28961Z" fill="#0D333F"/>
<path fill-rule="evenodd" clip-rule="evenodd" d="M11.3919 23.9991V16.0544H13.8746V23.9991H11.3919Z" fill="#0D333F"/>
<path fill-rule="evenodd" clip-rule="evenodd" d="M20.5791 23.9998V12.7449H23.0618V23.9998H20.5791Z" fill="#0D333F"/>
</g>
<defs>
<clipPath id="clip0_2301_37376">
<rect width="24" height="24" fill="white"/>
</clipPath>
</defs>
</svg>
