<?xml version="1.0" encoding="UTF-8"?>
<svg xmlns="http://www.w3.org/2000/svg" xmlns:xlink="http://www.w3.org/1999/xlink" width="114" height="20" viewBox="0 0 114 20">
  <defs>
    <path id="a" d="M.97 1.643a.94.94 0 0 0 .956.931.938.938 0 0 0 .955-.931.946.946 0 0 0-.955-.94.948.948 0 0 0-.956.94zm.152 0a.8.8 0 0 1 .804-.795.8.8 0 0 1 .805.795.803.803 0 0 1-.805.795.802.802 0 0 1-.804-.795zm.431-.534v1.06h.193v-.444h.139l.25.444h.235l-.289-.464c.152-.033.247-.133.247-.286 0-.228-.196-.31-.397-.31h-.378zm.193.161h.176c.101 0 .213.029.213.146 0 .128-.125.156-.234.156h-.155V1.27z"/>
    <path id="c" d="M73.497.824v12.745h2.296V9.516h.051l3.074 4.053h3.021l-3.573-4.491 3.402-3.726h-2.961L75.844 8.76h-.051V.824h-2.296zm-30.66 0v12.745h2.195v-1.161h.035c.519.839 1.546 1.392 2.612 1.392 2.369 0 4.166-1.84 4.166-4.373 0-2.495-1.775-4.306-4.115-4.306-1.051 0-1.824.453-2.554 1.13h-.042V.824h-2.297zm2.229 8.636c0-1.17.847-2.435 2.212-2.435 1.486 0 2.224 1.246 2.224 2.402 0 1.211-.805 2.434-2.224 2.434-1.384 0-2.212-1.22-2.212-2.401zM33.705.824v12.745h2.294V9.516h.051l3.075 4.053h3.02l-3.573-4.491 3.402-3.726h-2.959L36.05 8.76h-.051V.824h-2.294zm48.629 6.968c0 1.585 1.257 2.062 2.486 2.353 1.296.298 1.757.517 1.757 1.032 0 .761-.872.885-1.172.885-.751 0-1.622-.425-2.091-.975l-1.394 1.395c.762.834 2.064 1.337 3.401 1.337 2.244 0 3.576-1.057 3.576-2.802 0-1.67-1.631-2.231-2.789-2.506-1.182-.278-1.598-.427-1.598-.901 0-.651.835-.795 1.214-.795.711 0 1.517.42 1.819.819l1.354-1.284c-.626-.777-1.857-1.229-3.157-1.229-1.661 0-3.406.825-3.406 2.671zM62.988 9.427c0 2.583 1.939 4.395 4.509 4.395 2.569 0 4.507-1.83 4.507-4.395 0-2.495-1.897-4.306-4.507-4.306-2.613 0-4.509 1.811-4.509 4.306zm2.329 0c0-1.156.683-2.402 2.18-2.402 1.496 0 2.177 1.246 2.177 2.402 0 1.173-.681 2.434-2.177 2.434-1.497 0-2.18-1.261-2.18-2.434zm-12.415 0c0 2.583 1.938 4.395 4.507 4.395 2.57 0 4.508-1.83 4.508-4.395 0-2.495-1.895-4.306-4.508-4.306-2.612 0-4.507 1.811-4.507 4.306zm2.328 0c0-1.156.683-2.402 2.179-2.402 1.497 0 2.18 1.246 2.18 2.402 0 1.173-.683 2.434-2.18 2.434-1.496 0-2.179-1.261-2.179-2.434zm-30.272.033c0 2.556 1.845 4.34 4.489 4.34 1.258 0 2.421-.363 3.11-1.097l-1.438-1.526c-.333.401-1.03.684-1.654.684-1.399 0-2.102-1.234-2.102-2.427 0-1.194.763-2.376 2.034-2.376.595 0 1.348.296 1.643.712l1.479-1.458c-.715-.747-1.858-1.191-3.122-1.191-2.573 0-4.439 1.825-4.439 4.339zM.529 9.427c0 2.533 1.664 4.373 4.033 4.373 1.076 0 2.088-.562 2.674-1.22h.033v5.035h2.296V5.352H7.353v1.044h-.051C6.978 6.041 6.1 5.121 4.673 5.121 2.332 5.121.529 6.932.529 9.427zm2.369 0c0-1.156.741-2.402 2.227-2.402 1.365 0 2.211 1.265 2.211 2.435 0 1.181-.827 2.401-2.211 2.401-1.419 0-2.227-1.223-2.227-2.434zm18.292 4.142h2.296V5.351H21.19v8.218zm-4.173-8.217v4.505c0 .966-.637 2.004-1.824 2.004-.915 0-1.404-.643-1.404-1.971V5.352h-2.296v5.099c0 1.698.858 3.349 3.148 3.349 1.081 0 1.985-.841 2.442-1.46h.035v1.229h2.193V5.352h-2.294z"/>
    <path id="e" d="M.882 9.692c0 5.015 4.112 9.079 9.185 9.079s9.185-4.064 9.185-9.079c0-5.013-4.112-9.077-9.185-9.077S.882 4.679.882 9.692z"/>
    <path id="g" d="M7.576 10.224h2.553c1.973 0 3.572-1.582 3.572-3.53 0-1.95-1.599-3.532-3.572-3.532h-.51v1.311h.51c1.238 0 2.246.996 2.246 2.221 0 1.223-1.008 2.219-2.246 2.219H8.903V2.052A1.32 1.32 0 0 0 7.576.742v9.482zM4.004 3.162c-1.972 0-3.572 1.58-3.572 3.53 0 1.95 1.6 3.531 3.572 3.531h.51V8.911h-.51c-1.237 0-2.246-.994-2.246-2.219 0-1.223 1.009-2.219 2.246-2.219H5.23v6.859a1.32 1.32 0 0 0 1.326 1.312V3.162H4.004z"/>
  </defs>
  <g fill="none" fill-rule="evenodd">
    <g transform="translate(111 13)">
      <mask id="b" fill="#fff">
        <use xlink:href="#a"/>
      </mask>
      <path fill="#FFF" mask="url(#b)" d="M-4.079 7.566h12.01V-4.288h-12.01z"/>
    </g>
    <g transform="translate(22 2)">
      <mask id="d" fill="#fff">
        <use xlink:href="#c"/>
      </mask>
      <path fill="#FFF" mask="url(#d)" d="M-4.521 22.606h98.467V-4.166H-4.521z"/>
    </g>
    <mask id="f" fill="#fff">
      <use xlink:href="#e"/>
    </mask>
    <path fill="#2CA01C" mask="url(#f)" d="M-4.168 23.762h28.469V-4.377H-4.168z"/>
    <g transform="translate(3 3)">
      <mask id="h" fill="#fff">
        <use xlink:href="#g"/>
      </mask>
      <path fill="#FFF" mask="url(#h)" d="M-4.618 17.635h23.369V-4.25H-4.618z"/>
    </g>
  </g>
</svg>
