<svg width="24" height="24" viewBox="0 0 24 24" fill="none" xmlns="http://www.w3.org/2000/svg">
<path fill-rule="evenodd" clip-rule="evenodd" d="M5.29991 0.679488C5.36287 0.287926 5.7008 0 6.09739 0H23.1922C23.4289 0 23.6536 0.103759 23.807 0.28387C23.9605 0.463981 24.0273 0.702327 23.9897 0.93595L22.1387 12.4476C22.0757 12.8392 21.7378 13.1271 21.3412 13.1271H4.24635C4.00973 13.1271 3.78501 13.0233 3.63154 12.8432C3.47808 12.6631 3.41131 12.4248 3.44888 12.1911L5.29991 0.679488ZM6.7856 1.61544L5.19433 11.5116H20.653L22.2443 1.61544H6.7856Z" fill="#0D333F"/>
<path d="M15.3374 7.68421C16.1046 6.6407 16.0025 5.29397 15.1093 4.67621C14.2162 4.05845 12.8702 4.40359 12.103 5.4471C11.3359 6.49061 11.438 7.83734 12.3311 8.4551C13.2243 9.07286 14.5703 8.72772 15.3374 7.68421Z" fill="#0D333F"/>
<path d="M7.83997 5.4544C9.36435 5.4544 10.7798 4.39829 10.9976 2.97253H10.8887H9.85433C9.63656 3.71181 8.87437 4.29268 8.00329 4.39829L7.83997 5.4544Z" fill="#0D333F"/>
<path d="M19.5988 7.67236C18.0745 7.67236 16.659 8.78128 16.4412 10.1542H17.5845C17.8022 9.41495 18.5644 8.83409 19.4355 8.72848L19.5988 7.67236Z" fill="#0D333F"/>
<path d="M18.1292 4.60951C18.5648 5.08476 19.2181 5.4016 19.9803 5.4544L20.1436 4.39829C19.6536 4.39829 19.2181 4.23987 18.9459 3.92304C18.7281 3.65901 18.6192 3.34217 18.6737 2.97253H17.5848C17.5304 3.6062 17.6937 4.18707 18.1292 4.60951Z" fill="#0D333F"/>
<path d="M9.30962 8.51726C8.87408 8.042 8.22077 7.72517 7.45858 7.67236L7.29526 8.72848C7.78524 8.72848 8.22077 8.8869 8.49299 9.20373C8.71075 9.46776 8.81964 9.78459 8.7652 10.1542H9.85404C9.90848 9.52056 9.74515 8.9397 9.30962 8.51726Z" fill="#0D333F"/>
<path d="M0.65329 3.44796H3.26651L3.42984 2.39185H0.816616L0.65329 3.44796Z" fill="#0D333F"/>
<path d="M0.326477 5.45492H2.9397L3.10303 4.3988H0.489804L0.326477 5.45492Z" fill="#0D333F"/>
<path d="M0 7.46114H2.61322L2.77655 6.40503H0.163327L0 7.46114Z" fill="#0D333F"/>
</svg>
