<?xml version="1.0" encoding="UTF-8"?>
<svg xmlns="http://www.w3.org/2000/svg" xmlns:xlink="http://www.w3.org/1999/xlink" width="24" height="20" viewBox="0 0 24 20">
  <defs>
    <path id="a" d="M17.518.502c-2.697.047-4.869 2.206-4.869 4.863 0 .383.044.753.128 1.109A14.174 14.174 0 0 1 2.555 1.392a4.787 4.787 0 0 0-.671 2.445c0 1.688.876 3.177 2.206 4.048a4.992 4.992 0 0 1-2.246-.608v.061c0 2.358 1.709 4.324 3.978 4.771a5.126 5.126 0 0 1-2.24.084c.632 1.931 2.463 3.338 4.633 3.377a10.073 10.073 0 0 1-6.159 2.083c-.401 0-.796-.023-1.183-.069a14.229 14.229 0 0 0 7.602 2.186c9.121 0 14.11-7.413 14.11-13.841 0-.21-.005-.42-.014-.628a9.974 9.974 0 0 0 2.474-2.52c-.89.388-1.845.65-2.848.767A4.904 4.904 0 0 0 24.378.857c-.959.557-2.02.962-3.15 1.18A4.994 4.994 0 0 0 17.7.502h-.182z"/>
  </defs>
  <g fill="none" fill-rule="evenodd" transform="translate(-1 .09)">
    <mask id="b" fill="#fff">
      <use xlink:href="#a"/>
    </mask>
    <path fill="#6B6C72" mask="url(#b)" d="M-4.126 24.673h34.17V-4.403h-34.17z"/>
  </g>
</svg>
