<?xml version="1.0" encoding="UTF-8"?>
<svg xmlns="http://www.w3.org/2000/svg" xmlns:xlink="http://www.w3.org/1999/xlink" width="21" height="21" viewBox="0 0 21 21">
  <defs>
    <path id="a" d="M1.985.5C1.377.5.882.986.882 1.583v17.448c0 .599.495 1.083 1.103 1.083h9.577v-7.595H8.956v-2.96h2.606V7.376c0-2.533 1.577-3.912 3.881-3.912 1.105 0 2.053.08 2.329.117v2.647h-1.597c-1.253 0-1.497.584-1.497 1.441v1.89h2.989l-.389 2.96h-2.6v7.595h5.095c.61 0 1.105-.484 1.105-1.083V1.583C20.878.986 20.383.5 19.773.5H1.985z"/>
  </defs>
  <g fill="none" fill-rule="evenodd" transform="translate(0 .09)">
    <mask id="b" fill="#fff">
      <use xlink:href="#a"/>
    </mask>
    <path fill="#6B6C72" mask="url(#b)" d="M-4.117 25.018h29.994v-29.42H-4.117z"/>
  </g>
</svg>
