<?xml version="1.0" encoding="UTF-8"?>
<svg xmlns="http://www.w3.org/2000/svg" xmlns:xlink="http://www.w3.org/1999/xlink" width="30" height="21" viewBox="0 0 30 21">
  <defs>
    <path id="a" d="M3.933 1.082a3.508 3.508 0 0 0-2.492 2.459C.937 5.395.865 8.972.854 9.971v.531c.011 1 .083 4.575.587 6.429a3.508 3.508 0 0 0 2.492 2.459c2.197.581 11.007.581 11.007.581s8.811 0 11.007-.581a3.505 3.505 0 0 0 2.491-2.459c.521-1.92.58-5.687.588-6.526v-.336c-.008-.839-.067-4.607-.588-6.528a3.505 3.505 0 0 0-2.491-2.459C23.751.502 14.94.502 14.94.502s-8.81 0-11.007.58zm8.126 5.046l7.363 4.109-7.363 4.108V6.128z"/>
  </defs>
  <g fill="none" fill-rule="evenodd" transform="translate(0 .09)">
    <mask id="b" fill="#fff">
      <use xlink:href="#a"/>
    </mask>
    <path fill="#6B6C72" mask="url(#b)" d="M-4.146 24.874h38.172V-4.402H-4.146z"/>
  </g>
</svg>
