<?xml version="1.0" encoding="UTF-8"?>
<svg xmlns="http://www.w3.org/2000/svg" xmlns:xlink="http://www.w3.org/1999/xlink" width="18" height="19" viewBox="0 0 18 19">
  <defs>
    <path id="a" d="M.842 2.373c0 1.247 1.03 2.258 2.304 2.258 1.274 0 2.303-1.011 2.303-2.258C5.449 1.125 4.42.115 3.146.115S.842 1.125.842 2.373z"/>
    <path id="c" d="M.83.987v12.648h3.685V5.547s1.299-1.453 3.05-.686c.517.297.634.733.634 1.095v7.679h3.684V5.956c0-1.66-1.058-3.448-2.515-4.248C7.995.953 5.972.889 4.515 1.542V.987H.83z"/>
  </defs>
  <g fill="none" fill-rule="evenodd" transform="translate(0 .09)">
    <path fill="#6B6C72" d="M1.303 18.635h3.684V5.987H1.303z"/>
    <mask id="b" fill="#fff">
      <use xlink:href="#a"/>
    </mask>
    <path fill="#6B6C72" mask="url(#b)" d="M-4.156 9.535h14.604V-4.789H-4.156z"/>
    <g transform="translate(6 5)">
      <mask id="d" fill="#fff">
        <use xlink:href="#c"/>
      </mask>
      <path fill="#6B6C72" mask="url(#d)" d="M-4.169 18.538H16.88V-3.916H-4.169z"/>
    </g>
  </g>
</svg>
