<?xml version="1.0" encoding="UTF-8"?>
<svg xmlns="http://www.w3.org/2000/svg" xmlns:xlink="http://www.w3.org/1999/xlink" width="94" height="20" viewBox="0 0 94 20">
  <defs>
    <path id="a" d="M.965 1.32a.959.959 0 0 0 1.917 0 .965.965 0 0 0-.958-.979.967.967 0 0 0-.959.979zm.152 0c0-.458.362-.828.807-.828.444 0 .806.37.806.828a.82.82 0 0 1-.806.827.82.82 0 0 1-.807-.827zM1.55.762v1.105h.193v-.461h.139l.253.461h.233l-.289-.483c.152-.035.248-.138.248-.298 0-.237-.197-.324-.4-.324H1.55zm.193.17h.177c.101 0 .215.03.215.15 0 .134-.127.164-.236.164h-.156V.932z"/>
    <path id="c" d="M24.305.018v13.265h2.201v-1.209h.035c.518.872 1.55 1.449 2.619 1.449 2.376 0 4.176-1.914 4.176-4.551 0-2.597-1.779-4.482-4.126-4.482-1.052 0-1.828.472-2.561 1.177h-.043V.018h-2.301zm2.234 8.988c0-1.218.849-2.533 2.219-2.533 1.489 0 2.23 1.296 2.23 2.499 0 1.259-.807 2.534-2.23 2.534-1.389 0-2.219-1.27-2.219-2.5zm19.013-6.665v2.391h-1.408v1.886h1.408v3.765c0 1.318.313 3.093 2.786 3.093.484 0 1.094-.102 1.457-.244l-.055-1.847a3.125 3.125 0 0 1-1.01.175c-.671 0-.91-.483-.91-1.195V6.618h2.012V4.732H47.82V2.341h-2.268zm-43.395 0v2.391H.749v1.886h1.408v3.765c0 1.318.313 3.093 2.787 3.093.482 0 1.094-.102 1.456-.244l-.055-1.847a3.123 3.123 0 0 1-1.009.175c-.673 0-.911-.483-.911-1.195V6.618h2.011V4.732H4.425V2.341H2.157zm49.23 3.552l1.18 1.358c.542-.557 1.475-.909 2.222-.909.822 0 1.66.42 1.66 1.427v.15c-2.42.013-5.492.311-5.492 2.859 0 1.873 1.588 2.71 3.162 2.71.985 0 1.833-.573 2.352-1.196h.052v.991h2.167V8.112c0-1.351-.486-3.622-3.732-3.622-1.324 0-2.67.548-3.571 1.403zm1.82 4.917c0-.827 1.009-1.334 2.975-1.334h.308v.185c0 1.267-.7 2.062-1.968 2.062-.472 0-1.315-.145-1.315-.913zM34.4 8.972c0 2.688 1.944 4.575 4.521 4.575 2.576 0 4.52-1.905 4.52-4.575 0-2.597-1.901-4.482-4.52-4.482-2.62 0-4.521 1.885-4.521 4.482zm2.336 0c0-1.203.684-2.499 2.185-2.499 1.5 0 2.184 1.296 2.184 2.499 0 1.221-.684 2.534-2.184 2.534-1.501 0-2.185-1.313-2.185-2.534zM20.133 6.05H20.1V4.732h-2.219v8.551h2.302V8.714c0-.021.103-2.089 2.096-2.089.166 0 .45.025.714.093V4.561a3.817 3.817 0 0 0-.659-.071c-.905 0-1.68.761-2.201 1.56zm45.671-1.318l-1.718 2.452-1.669-2.452h-2.784l3.012 4.017-3.38 4.534h2.748l2.037-2.903 2.021 2.903h2.818l-3.398-4.534 2.993-4.017h-2.68zm-52.18 0v4.687c0 1.005-.637 2.087-1.829 2.087-.916 0-1.406-.671-1.406-2.052V4.732H8.086v5.306c0 1.765.86 3.485 3.156 3.485 1.084 0 1.991-.874 2.45-1.52h.033v1.28h2.201V4.732h-2.302z"/>
    <path id="e" d="M.882 10.115c0 5.246 4.147 9.499 9.261 9.499 5.113 0 9.26-4.253 9.26-9.499 0-5.247-4.147-9.501-9.26-9.501C5.029.614.882 4.868.882 10.115z"/>
    <path id="g" d="M4.586 9.598A39.287 39.287 0 0 1 1.52 7.079c-.36.81-.683 1.642-.97 2.489 1.561 1.36 3.65 2.917 5.084 3.793 1.858-4.936 4.756-8.155 7.531-10.402a7.35 7.35 0 0 0-1.422-2.07 26.388 26.388 0 0 0-7.157 8.709z"/>
  </defs>
  <g fill="none" fill-rule="evenodd">
    <g transform="translate(91 14)">
      <mask id="b" fill="#fff">
        <use xlink:href="#a"/>
      </mask>
      <path fill="#FFF" mask="url(#b)" d="M-4.135 7.522H7.983V-4.892H-4.135z"/>
    </g>
    <g transform="translate(22 3)">
      <mask id="d" fill="#fff">
        <use xlink:href="#c"/>
      </mask>
      <path fill="#FFF" mask="url(#d)" d="M-4.352 18.779H73.99V-5.214H-4.352z"/>
    </g>
    <mask id="f" fill="#fff">
      <use xlink:href="#e"/>
    </mask>
    <path fill="#D52B1E" mask="url(#f)" d="M-4.219 24.848h28.724V-4.619H-4.219z"/>
    <g transform="translate(4 4)">
      <mask id="h" fill="#fff">
        <use xlink:href="#g"/>
      </mask>
      <path fill="#FFF" mask="url(#h)" d="M-4.551 18.594h22.818V-4.345H-4.551z"/>
    </g>
  </g>
</svg>
